<svg width="1366" height="442" viewBox="0 0 1366 442" fill="none" xmlns="http://www.w3.org/2000/svg">
<rect width="209.922" height="209.922" transform="translate(462)" fill="#DD7200"/>
<path d="M566.961 104.961H619.441V157.441H566.961V104.961ZM566.961 52.4805H619.441V104.961H566.961V52.4805ZM514.48 104.961V52.4805H566.961L514.48 104.961ZM514.48 104.961H566.961V157.441L514.48 104.961Z" fill="black"/>
<rect width="209.922" height="209.922" transform="translate(231)" fill="#004D1F"/>
<path d="M388.441 104.961V157.441H335.961L388.441 104.961ZM388.441 52.4805V104.961H335.961L388.441 52.4805ZM335.961 104.961H283.48V52.4805L335.961 104.961ZM283.48 157.441V104.961H335.961L283.48 157.441Z" fill="#00C853"/>
<rect width="209.922" height="209.922" fill="#9C27B0"/>
<path d="M157.441 104.961V157.441H104.961L157.441 104.961ZM104.961 52.4805H157.441V104.961H104.961V52.4805ZM52.4805 52.4805H104.961V104.961H52.4805V52.4805ZM52.4805 157.441V104.961H104.961L52.4805 157.441Z" fill="#4A148C"/>
<rect width="209.922" height="209.922" transform="translate(693)" fill="#99E6B3"/>
<path d="M797.961 157.441V104.961H850.441L797.961 157.441ZM797.961 52.4805H850.441V104.961L797.961 52.4805ZM745.48 52.4805H797.961V104.961L745.48 52.4805ZM797.961 157.441H745.48V104.961L797.961 157.441Z" fill="#4A148C"/>
<rect width="209.922" height="209.922" transform="translate(924)" fill="#004D1F"/>
<path d="M1081.44 157.441H1028.96V104.961L1081.44 157.441ZM1028.96 104.961V157.441H976.48L1028.96 104.961ZM976.48 52.4805H1028.96V104.961H976.48V52.4805ZM1081.44 52.4805V104.961H1028.96L1081.44 52.4805Z" fill="#E1BEE7"/>
<rect width="209.922" height="209.922" transform="translate(1156)" fill="#00C853"/>
<path d="M1313.44 104.961V157.441H1260.96L1313.44 104.961ZM1260.96 104.961V52.4805H1313.44L1260.96 104.961ZM1208.48 104.961V52.4805H1260.96L1208.48 104.961ZM1208.48 157.441V104.961H1260.96L1208.48 157.441Z" fill="#004D1F"/>
<rect width="209.922" height="209.922" transform="translate(1156 231.015)" fill="black"/>
<path d="M1313.44 388.456H1260.96V335.976L1313.44 388.456ZM1260.96 335.976V388.456H1208.48L1260.96 335.976ZM1260.96 283.495V335.976H1208.48L1260.96 283.495ZM1313.44 283.495V335.976H1260.96L1313.44 283.495Z" fill="#0082FB"/>
<rect width="209.922" height="209.922" transform="translate(693 231.015)" fill="#401F00"/>
<path d="M797.961 388.456V335.976H850.441L797.961 388.456ZM797.961 335.976V283.495H850.441L797.961 335.976ZM797.961 283.495V335.976H745.48L797.961 283.495ZM745.48 388.456V335.976H797.961L745.48 388.456Z" fill="#DD7200"/>
<rect width="209.922" height="209.922" transform="translate(924 231.015)" fill="#0082FB"/>
<path d="M1028.96 335.976H1081.44V388.456H1028.96V335.976ZM1028.96 335.976V283.495H1081.44L1028.96 335.976ZM1028.96 335.976H976.48V283.495L1028.96 335.976ZM1028.96 335.976V388.456H976.48L1028.96 335.976Z" fill="white"/>
<rect width="209.922" height="209.922" transform="translate(462 231.015)" fill="#004D1F"/>
<path d="M566.961 335.976H619.441V388.456L566.961 335.976ZM514.48 335.976H566.961V388.456H514.48V335.976ZM514.48 283.495H566.961V335.976H514.48V283.495ZM566.961 283.495H619.441V335.976L566.961 283.495Z" fill="#99E6B3"/>
<rect width="209.922" height="209.922" transform="translate(231 231.015)" fill="#E1BEE7"/>
<path d="M335.961 335.976H388.441V388.456H335.961V335.976ZM335.961 388.456H283.48V335.976L335.961 388.456ZM335.961 335.976H283.48V283.495L335.961 335.976ZM335.961 283.495H388.441V335.976L335.961 283.495Z" fill="#9C27B0"/>
<rect width="209.922" height="209.922" transform="translate(0 231.015)" fill="#003366"/>
<path d="M157.441 388.456H104.961V335.976L157.441 388.456ZM52.4805 335.976H104.961V388.456H52.4805V335.976ZM104.961 283.495V335.976H52.4805L104.961 283.495ZM104.961 283.495H157.441V335.976H104.961V283.495Z" fill="#0082FB"/>
<rect width="1366" height="441.941" fill="url(#paint0_radial_1038_10279)"/>
<rect width="1366" height="441.941" fill="url(#paint1_linear_1038_10279)"/>
<defs>
<radialGradient id="paint0_radial_1038_10279" cx="0" cy="0" r="1" gradientUnits="userSpaceOnUse" gradientTransform="translate(683 220.971) scale(683 397.858)">
<stop stop-color="#0E1215" stop-opacity="0"/>
<stop offset="1" stop-color="#0E1215"/>
</radialGradient>
<linearGradient id="paint1_linear_1038_10279" x1="683" y1="0" x2="683" y2="441.941" gradientUnits="userSpaceOnUse">
<stop offset="0.495192" stop-color="#0E1215" stop-opacity="0"/>
<stop offset="1" stop-color="#0E1215"/>
</linearGradient>
</defs>
</svg>
